#!OML:ASF E:\acrobat2\Project_11_07_03\Capture day 1\Session 1\Acrobat.ASF
:FULLY-SPECIFIED
:DEGREES
411
root 10.6428 4.29973 5.30636 30.3927 -2.03835 177.838
lowerback 33.6836 1.24957 -0.195742
upperback 13.8454 3.78789 -4.19973
thorax -1.74137 3.61561 -5.49887
lowerneck -3.15142 -2.85181 7.54845
upperneck 17.4793 -4.32091 3.24191
head 5.74178 -0.912953 -0.425589
rclavicle 1.86858e-014 -4.3832e-014
rhumerus 50.6625 -22.5672 -65.2692
rradius 114.166
rwrist 7.84492
rhand -35.5796 -58.573
rfingers 7.12502
rthumb -8.70413 271.626
lclavicle 1.86858e-014 -4.3832e-014
lhumerus 67.4419 0.182831 53.6166
lradius 103.856
lwrist 5.77361
lhand -38.0776 -30.6721
lfingers 7.12502
lthumb -11.1141 -0.986455
rfemur -55.9436 -24.4601 -34.7538
rtibia 21.4226
rfoot -9.05531 -29.7819
rtoes 30.8948
lfemur -65.7435 38.7291 14.4405
ltibia 37.1549
lfoot -4.43392 11.5562
ltoes 46.4952
412
root 10.6625 4.05795 5.10167 33.3061 -1.98747 177.976
lowerback 34.0075 1.3447 -1.03498
upperback 13.5419 3.71379 -3.87173
thorax -2.23329 3.5194 -4.72279
lowerneck -4.35208 -2.35156 7.11728
upperneck 16.0479 -3.79346 3.31892
head 5.51576 -0.830869 -0.320669
rclavicle -1.98785e-015 1.91827e-014
rhumerus 48.0984 -20.6897 -62.8673
rradius 114.087
rwrist 8.76454
rhand -33.7102 -54.9871
rfingers 7.12502
rthumb -6.89987 275.145
lclavicle -1.98785e-015 1.91827e-014
lhumerus 65.5722 -0.383262 49.4539
lradius 102.843
lwrist 6.22696
lhand -34.7201 -22.6062
lfingers 7.12502
lthumb -7.87461 7.22711
rfemur -57.9491 -27.0688 -32.9161
rtibia 24.4389
rfoot -5.33097 -28.7463
rtoes 27.7491
lfemur -67.5433 39.8514 12.9798
ltibia 39.7218
lfoot -3.87811 11.4681
ltoes 46.6015
413
root 10.6809 3.82573 4.90769 36.2587 -1.75355 177.892
lowerback 34.0302 1.35753 -1.71324
upperback 13.4477 3.59558 -3.40337
thorax -2.39192 3.41703 -3.84425
lowerneck -5.7395 -1.89975 6.39703
upperneck 14.9223 -3.31265 3.41279
head 5.41949 -0.746792 -0.164659
rclavicle 2.66371e-014 -2.71838e-014
rhumerus 46.0021 -18.2214 -60.7196
rradius 113.101
rwrist 10.0025
rhand -31.5811 -52.2815
rfingers 7.12502
rthumb -4.8443 277.794
lclavicle 2.66371e-014 -2.71838e-014
lhumerus 63.6448 -1.1789 45.3395
lradius 101.071
lwrist 5.70496
lhand -32.713 -16.6409
lfingers 7.12502
lthumb -5.93714 13.2559
rfemur -59.9018 -29.3681 -30.9499
rtibia 27.3673
rfoot -2.18338 -27.651
rtoes 24.7511
lfemur -69.4001 40.9981 11.7892
ltibia 42.3669
lfoot -3.45643 11.198
ltoes 46.9411
414
root 10.6969 3.59882 4.7237 39.2039 -1.40448 177.61
lowerback 33.8383 1.29274 -2.33506
upperback 13.5091 3.40804 -2.76705
thorax -2.31147 3.28059 -2.78047
lowerneck -7.03665 -1.48145 5.34816
upperneck 14.0117 -2.78482 3.3111
head 5.37138 -0.645771 -0.00817017
rclavicle -3.97569e-015 -5.93124e-014
rhumerus 44.5381 -15.0403 -58.7157
rradius 111.22
rwrist 10.9365
rhand -29.495 -50.72
rfingers 7.12502
rthumb -2.82973 279.319
lclavicle -3.97569e-015 -5.93124e-014
lhumerus 61.4952 -2.18332 41.6456
lradius 98.5736
lwrist 4.72844
lhand -32.0906 -12.8849
lfingers 7.12502
lthumb -5.33618 17.028
rfemur -61.731 -31.2421 -28.9225
rtibia 30.0895
rfoot 0.461195 -26.5412
rtoes 22.6137
lfemur -71.1227 42.174 10.9185
ltibia 45.0036
lfoot -3.08713 10.8069
ltoes 47.2102
415
root 10.7114 3.37652 4.55442 42.1138 -1.06705 177.56
lowerback 33.4508 1.09537 -3.14333
upperback 13.7 3.01395 -2.07567
thorax -2.02201 3.03886 -1.48421
lowerneck -8.00462 -1.08309 3.88127
upperneck 13.1517 -2.15351 3.04988
head 5.27961 -0.511588 0.180555
rclavicle -4.35338e-014 4.72983e-014
rhumerus 43.7396 -11.1967 -56.7879
rradius 108.59
rwrist 10.8569
rhand -27.7988 -50.2924
rfingers 7.12502
rthumb -1.1916 279.731
lclavicle -4.35338e-014 4.72983e-014
lhumerus 59.0582 -3.52629 38.7168
lradius 95.4796
lwrist 3.74478
lhand -32.746 -11.2345
lfingers 7.12502
lthumb -5.96898 18.6615
rfemur -63.1251 -32.9009 -27.3993
rtibia 32.5133
rfoot 2.70527 -25.4978
rtoes 21.1495
lfemur -72.6764 43.124 9.93096
ltibia 47.5022
lfoot -2.6865 10.4231
ltoes 47.1924
416
root 10.7243 3.15767 4.40083 45.0599 -1.05665 177.734
lowerback 32.412 0.855313 -4.23724
upperback 14.2478 2.51813 -1.49386
thorax -1.41384 2.73464 -0.0720972
lowerneck -8.56568 -0.712289 2.23724
upperneck 12.2029 -1.45237 2.60037
head 5.08441 -0.347949 0.350247
rclavicle -9.59136e-015 -3.21387e-014
rhumerus 43.4639 -6.94814 -55.0207
rradius 105.385
rwrist 9.54577
rhand -26.5375 -50.6778
rfingers 7.12502
rthumb 0.0266549 279.342
lclavicle -9.59136e-015 -3.21387e-014
lhumerus 56.5453 -5.19003 36.7101
lradius 91.9764
lwrist 3.26218
lhand -34.0039 -11.1455
lfingers 7.12502
lthumb -7.18335 18.7126
rfemur -64.3347 -34.309 -26.4013
rtibia 34.6664
rfoot 4.68474 -24.5526
rtoes 20.4891
lfemur -73.8802 44.0013 8.76216
ltibia 49.7729
lfoot -2.23576 10.1802
ltoes 46.7358
417
root 10.7354 2.94231 4.26373 48.064 -1.48857 178.192
lowerback 31.6168 0.620025 -5.7639
upperback 14.4981 1.93401 -1.14773
thorax -0.767978 2.37262 1.41496
lowerneck -8.85376 -0.350671 0.573202
upperneck 11.2416 -0.716349 2.07263
head 4.83369 -0.145124 0.503878
rclavicle 1.98785e-016 -2.52208e-015
rhumerus 43.5483 -2.57108 -53.6204
rradius 101.833
rwrist 7.03839
rhand -25.7358 -51.4044
rfingers 7.12502
rthumb 0.800921 278.617
lclavicle 1.98785e-016 -2.52208e-015
lhumerus 54.1569 -7.04227 35.6535
lradius 88.2159
lwrist 3.49296
lhand -35.2532 -12.1537
lfingers 7.12502
lthumb -8.38914 17.6597
rfemur -65.3981 -35.581 -26.0125
rtibia 36.6041
rfoot 6.50528 -23.6932
rtoes 20.5649
lfemur -74.7344 44.7533 7.25946
ltibia 51.7739
lfoot -1.73465 10.1626
ltoes 45.9437
418
root 10.7443 2.73069 4.14376 51.1523 -2.5943 179.069
lowerback 30.7406 4.04442 -5.76153
upperback 14.7676 0.637787 -0.159085
thorax -0.196242 -1.75537 2.93202
lowerneck -8.85571 -0.0220755 -1.19341
upperneck 10.2447 -0.030145 1.87153
head 4.52016 0.0799307 0.771204
rclavicle -5.56597e-015 -9.74045e-015
rhumerus 43.8162 1.70214 -52.7674
rradius 98.0579
rwrist 3.76961
rhand -25.3842 -52.0018
rfingers 7.12502
rthumb 1.14049 278.021
lclavicle -5.56597e-015 -9.74045e-015
lhumerus 52.0032 -8.91579 35.429
lradius 84.2998
lwrist 4.35408
lhand -36.0271 -13.4327
lfingers 7.12502
lthumb -9.13591 16.3495
rfemur -66.4078 -36.9037 -26.4201
rtibia 38.4157
rfoot 8.29965 -22.8729
rtoes 20.927
lfemur -75.2586 45.272 5.11571
ltibia 53.4542
lfoot -1.25096 10.4083
ltoes 45.0461
419
root 10.7507 2.52328 4.04017 54.3072 -4.27822 180.212
lowerback 29.689 4.0129 -8.27653
upperback 14.9268 -0.00112559 -0.417714
thorax 0.544525 -2.22975 4.23738
lowerneck -8.8657 0.22371 -2.61091
upperneck 9.45272 0.473833 1.93309
head 4.26727 0.269286 1.0489
rclavicle -3.57812e-014 -4.50247e-014
rhumerus 43.8891 5.43549 -52.6716
rradius 94.1699
rwrist 0.355303
rhand -25.1832 -52.2877
rfingers 7.12502
rthumb 1.33459 277.737
lclavicle -3.57812e-014 -4.50247e-014
lhumerus 50.4233 -10.8144 35.7299
lradius 80.2816
lwrist 5.61171
lhand -36.2512 -14.2251
lfingers 7.12502
lthumb -9.35219 15.5475
rfemur -67.322 -38.2938 -27.4717
rtibia 40.0974
rfoot 10.1021 -22.1031
rtoes 21.3976
lfemur -75.5171 45.5019 2.43629
ltibia 54.8137
lfoot -0.714049 10.9132
ltoes 44.0284
420
root 10.7543 2.32239 3.95019 57.4371 -6.32598 181.442
lowerback 28.6884 4.04209 -10.8899
upperback 15.0263 -0.538037 -0.882626
thorax 1.26111 -2.66303 5.31194
lowerneck -8.9437 0.388489 -3.55124
upperneck 8.66489 0.813843 2.01358
head 4.47543 0.398866 1.38093
rclavicle -1.03368e-014 1.51076e-014
rhumerus 43.5817 8.54743 -53.3013
rradius 90.1683
rwrist -2.57518
rhand -24.9962 -52.1701
rfingers 7.12502
rthumb 1.51528 277.856
lclavicle -1.03368e-014 1.51076e-014
lhumerus 49.3748 -12.7419 36.4938
lradius 76.1595
lwrist 6.85168
lhand -36.2489 -14.3498
lfingers 7.12502
lthumb -9.34997 15.4228
rfemur -68.1506 -39.7874 -28.8549
rtibia 41.7526
rfoot 12.0383 -21.2978
rtoes 21.6624
lfemur -75.5033 45.3853 -0.502834
ltibia 55.8721
lfoot -0.0173113 11.6025
ltoes 42.8806
421
root 10.7544 2.13287 3.87454 60.4497 -8.67387 182.731
lowerback 28.1483 4.22603 -13.5803
upperback 14.9672 -0.979688 -1.24995
thorax 1.61184 -3.02746 6.02299
lowerneck -8.9195 0.462333 -3.88453
upperneck 8.5732 0.943622 2.13868
head 4.43342 0.45846 1.49148
rclavicle -1.03368e-014 2.54444e-014
rhumerus 42.7147 10.9652 -54.5618
rradius 86.0257
rwrist -4.67833
rhand -24.6467 -51.7922
rfingers 7.12502
rthumb 1.8528 278.236
lclavicle -1.03368e-014 2.54444e-014
lhumerus 48.7944 -14.8374 37.6722
lradius 71.9351
lwrist 7.90334
lhand -36.4136 -13.8196
lfingers 7.12502
lthumb -9.50887 15.9458
rfemur -68.6426 -41.341 -30.6543
rtibia 43.254
rfoot 14.124 -20.4842
rtoes 21.8462
lfemur -75.1571 44.8529 -3.61542
ltibia 56.6153
lfoot 0.890585 12.342
ltoes 41.8044
422
root 10.7532 1.96391 3.8124 63.4645 -10.9713 183.793
lowerback 27.3326 4.33349 -15.9008
upperback 14.8804 -1.28068 -1.84496
thorax 2.02499 -3.29041 6.62548
lowerneck -8.60203 0.4704 -3.82809
upperneck 8.70011 0.938471 2.16082
head 4.41485 0.459952 1.48623
rclavicle 1.19271e-014 1.78906e-014
rhumerus 41.3188 12.8979 -56.3621
rradius 81.7125
rwrist -5.8836
rhand -24.1005 -51.481
rfingers 7.12502
rthumb 2.38026 278.553
lclavicle 1.19271e-014 1.78906e-014
lhumerus 48.3073 -17.0783 39.3121
lradius 67.6702
lwrist 8.78774
lhand -36.9927 -13.2733
lfingers 7.12502
lthumb -10.0676 16.4659
rfemur -68.8532 -42.8873 -32.4486
rtibia 44.5576
rfoot 16.1411 -19.7089
rtoes 22.1459
lfemur -74.6575 44.108 -6.52993
ltibia 57.1122
lfoot 1.97489 13.0194
ltoes 40.9899
423
root 10.7556 1.82378 3.76216 66.6785 -13.0973 184.475
lowerback 26.3054 4.31547 -17.8606
upperback 14.6056 -1.53248 -2.43499
thorax 2.32426 -3.45518 7.02675
lowerneck -7.7739 0.463081 -3.74896
upperneck 8.9018 0.895324 2.23381
head 4.32102 0.448426 1.4866
rclavicle -5.56597e-014 -2.5842e-014
rhumerus 39.4225 14.5603 -58.7047
rradius 77.2655
rwrist -6.36876
rhand -23.52 -51.3636
rfingers 7.12502
rthumb 2.94089 278.677
lclavicle -5.56597e-014 -2.5842e-014
lhumerus 47.5662 -19.3857 41.5201
lradius 63.3603
lwrist 9.57134
lhand -38.128 -13.3093
lfingers 7.12502
lthumb -11.1627 16.3737
rfemur -69.0357 -44.4429 -33.9649
rtibia 45.7156
rfoot 17.9611 -18.9947
rtoes 22.4753
lfemur -74.2165 43.3652 -9.17069
ltibia 57.407
lfoot 3.08574 13.5729
ltoes 40.5225
424
root 10.767 1.72663 3.71912 70.5293 -15.0045 184.575
lowerback 24.4414 4.12043 -19.495
upperback 14.1428 -1.61534 -3.03019
thorax 2.74758 -3.45966 7.22017
lowerneck -6.45568 0.416398 -3.69584
upperneck 9.0892 0.787642 2.41477
head 4.1268 0.413133 1.51907
rclavicle -2.14687e-014 4.29375e-014
rhumerus 37.0371 15.8558 -61.4944
rradius 72.741
rwrist -6.51271
rhand -23.1267 -51.587
rfingers 7.12502
rthumb 3.32078 278.459
lclavicle -2.14687e-014 4.29375e-014
lhumerus 46.5268 -21.7329 44.2441
lradius 59.0898
lwrist 10.5472
lhand -39.5094 -13.7927
lfingers 7.12502
lthumb -12.4948 15.8138
rfemur -69.8117 -46.1664 -34.7625
rtibia 46.8584
rfoot 19.4358 -18.3513
rtoes 22.7121
lfemur -74.4089 42.9782 -11.7544
ltibia 57.6327
lfoot 4.06406 13.9857
ltoes 40.3639
